<?xml version="1.0" encoding="UTF-8"?>
<svg xmlns="http://www.w3.org/2000/svg" xmlns:xlink="http://www.w3.org/1999/xlink" width="50px" height="50px" viewBox="0 0 50 50" version="1.1">
<g id="surface1">
<path style=" stroke:none;fill-rule:nonzero;fill:rgb(70.19608%,69.411767%,69.01961%);fill-opacity:1;" d="M 45.832031 29.90625 C 45.832031 28.359375 44.660156 27.101562 43.207031 27.101562 L 22.242188 27.101562 C 20.792969 27.101562 19.617188 28.359375 19.617188 29.90625 C 19.617188 31.453125 20.789062 32.710938 22.242188 32.710938 L 43.207031 32.710938 C 44.660156 32.710938 45.832031 31.453125 45.832031 29.90625 Z M 45.832031 29.90625 "/>
<path style=" stroke:none;fill-rule:nonzero;fill:rgb(90.588236%,64.313728%,12.156863%);fill-opacity:1;" d="M 7.253906 37.890625 L 16.238281 46.976562 C 18.265625 49.015625 21.070312 50 24.164062 50 C 27.257812 50 30.058594 48.933594 32.089844 46.886719 L 37.480469 41.394531 C 38.542969 40.324219 38.507812 38.550781 37.398438 37.433594 C 36.292969 36.320312 34.535156 36.285156 33.476562 37.355469 L 27.898438 42.785156 C 26.9375 43.757812 25.605469 44.164062 24.132812 44.164062 C 22.660156 44.164062 21.328125 43.757812 20.359375 42.785156 L 11.40625 33.695312 C 10.441406 32.722656 9.957031 31.300781 9.957031 29.816406 C 9.957031 28.328125 10.441406 26.988281 11.40625 26.015625 L 20.332031 16.890625 C 21.296875 15.917969 22.660156 15.546875 24.128906 15.546875 C 25.601562 15.546875 26.933594 15.953125 27.898438 16.925781 L 33.472656 22.355469 C 34.535156 23.425781 36.292969 23.390625 37.398438 22.273438 C 38.507812 21.160156 38.542969 19.386719 37.480469 18.316406 L 32.089844 12.824219 C 30.71875 11.453125 28.992188 10.492188 27.105469 10.050781 L 27.035156 10.039062 L 32.132812 4.824219 C 33.199219 3.753906 33.164062 1.976562 32.054688 0.863281 C 30.949219 -0.253906 29.191406 -0.289062 28.125 0.785156 L 7.253906 21.824219 C 5.226562 23.871094 4.167969 26.695312 4.167969 29.816406 C 4.167969 32.933594 5.226562 35.847656 7.253906 37.890625 Z M 7.253906 37.890625 "/>
<path style=" stroke:none;fill-rule:nonzero;fill:rgb(2.745098%,2.745098%,2.352941%);fill-opacity:1;" d="M 16.90625 47.527344 C 16.542969 47.328125 16.210938 47.074219 15.917969 46.777344 C 13.152344 44 10.378906 41.234375 7.617188 38.449219 C 3.476562 34.265625 2.824219 28.164062 5.980469 23.199219 C 6.484375 22.441406 7.070312 21.738281 7.730469 21.109375 L 27.777344 1.019531 C 29.078125 -0.285156 30.898438 -0.339844 32.109375 0.878906 C 33.273438 2.050781 33.207031 3.910156 31.945312 5.183594 C 30.34375 6.800781 28.738281 8.414062 27.136719 10.027344 C 27.050781 10.28125 26.84375 10.445312 26.667969 10.625 C 24.867188 12.449219 23.019531 14.226562 21.246094 16.078125 C 21.015625 16.320312 20.703125 16.464844 20.472656 16.714844 C 17.507812 19.679688 14.507812 22.609375 11.585938 25.613281 C 9.222656 28.046875 9.300781 31.734375 11.726562 34.210938 C 14.453125 36.996094 17.226562 39.734375 19.980469 42.492188 C 20.117188 42.632812 20.261719 42.765625 20.402344 42.902344 C 21.378906 43.535156 21.390625 45.507812 20.785156 46.386719 C 20.117188 47.355469 19.242188 47.949219 18.007812 47.902344 C 17.59375 47.890625 17.253906 47.722656 16.90625 47.527344 Z M 16.90625 47.527344 "/>
</g>
</svg>
